<svg id="Layer_1" height="512" viewBox="0 0 55 55" width="512" xmlns="http://www.w3.org/2000/svg" data-name="Layer 1"><path d="m27.5 52.25a24.75 24.75 0 1 1 24.75-24.75 24.77 24.77 0 0 1 -24.75 24.75zm0-48a23.25 23.25 0 1 0 23.25 23.25 23.28 23.28 0 0 0 -23.25-23.25z"/><path d="m17.17 38.58a.74.74 0 0 1 -.53-.22.75.75 0 0 1 0-1.06l20.66-20.66a.75.75 0 0 1 1.06 1.06l-20.66 20.66a.74.74 0 0 1 -.53.22z"/><path d="m37.83 38.58a.74.74 0 0 1 -.53-.22l-20.66-20.66a.75.75 0 0 1 1.06-1.06l20.66 20.66a.75.75 0 0 1 0 1.06.74.74 0 0 1 -.53.22z"/></svg>