<svg id="Icons" height="512" viewBox="0 0 74 74" width="512" xmlns="http://www.w3.org/2000/svg"><path d="m66 72h-58a4 4 0 0 1 -4-4v-62a4 4 0 0 1 4-4h43.76a4.06 4.06 0 0 1 2.83 1.17l14.24 14.24a4 4 0 0 1 1.17 2.83v47.76a4 4 0 0 1 -4 4zm-58-68a2 2 0 0 0 -2 2v62a2 2 0 0 0 2 2h58a2 2 0 0 0 2-2v-47.76a2 2 0 0 0 -.59-1.41l-14.24-14.24a2 2 0 0 0 -1.41-.59z"/><path d="m45.19 16h-30a2 2 0 0 1 -2-2v-11a1 1 0 0 1 1-1h32a1 1 0 0 1 1 1v11a2 2 0 0 1 -2 2zm-30-12v10h30v-10z"/><path d="m39.62 12a1 1 0 0 1 -1-1v-4a1 1 0 0 1 2 0v4a1 1 0 0 1 -1 1z"/><path d="m59.38 72h-44.76a1 1 0 0 1 -1-1v-32a3 3 0 0 1 3-3h40.76a3 3 0 0 1 3 3v32a1 1 0 0 1 -1 1zm-43.76-2h42.76v-31a1 1 0 0 0 -1-1h-40.76a1 1 0 0 0 -1 1z"/><path d="m54 46.38h-34a1 1 0 1 1 0-2h34a1 1 0 0 1 0 2z"/><path d="m54 55h-34a1 1 0 0 1 0-2h34a1 1 0 0 1 0 2z"/><path d="m54 63.62h-34a1 1 0 0 1 0-2h34a1 1 0 0 1 0 2z"/></svg>